<?xml version="1.0" encoding="iso-8859-1"?>
<!-- Generator: Adobe Illustrator 19.0.0, SVG Export Plug-In . SVG Version: 6.00 Build 0)  -->
<svg version="1.1" id="Layer_1" xmlns="http://www.w3.org/2000/svg" xmlns:xlink="http://www.w3.org/1999/xlink" x="0px" y="0px"
	 viewBox="0 0 511.999 511.999" style="enable-background:new 0 0 511.999 511.999;" xml:space="preserve">
<g>
	<g>
		<path fill="#fff" d="M256,38.383C136.006,38.383,38.383,136.005,38.383,256c0,93.067,59.224,175.846,147.372,205.986
			c3.957,1.354,8.265-0.758,9.619-4.717c1.354-3.958-0.759-8.265-4.717-9.619C108.639,419.606,53.534,342.588,53.534,256
			C53.534,144.36,144.36,53.534,256,53.534c111.64,0,202.466,90.826,202.466,202.466c0,111.641-90.826,202.467-202.466,202.467
			c-13.718,0-27.429-1.387-40.755-4.121c-4.098-0.835-8.102,1.8-8.943,5.899c-0.841,4.099,1.799,8.103,5.898,8.944
			c14.326,2.939,29.062,4.429,43.801,4.429c119.994,0,217.617-97.623,217.617-217.618S375.994,38.383,256,38.383z"/>
	</g>
</g>
<g>
	<g>
		<path fill="#fff" d="M437.02,74.98c-11.978-11.978-25.118-22.78-39.055-32.104c-3.478-2.327-8.183-1.394-10.509,2.084
			c-2.326,3.477-1.394,8.183,2.084,10.509c13.116,8.775,25.486,18.944,36.766,30.224c45.49,45.49,70.543,105.973,70.543,170.305
			s-25.053,124.816-70.543,170.306c-45.49,45.49-105.973,70.543-170.305,70.543s-124.816-25.053-170.306-70.543
			C40.204,380.815,15.151,320.333,15.151,256S40.204,131.185,85.694,85.694S191.667,15.151,256,15.151
			c39.004,0,76.118,8.952,110.311,26.608c3.719,1.919,8.288,0.463,10.207-3.255c1.919-3.717,0.463-8.288-3.255-10.207
			C337.411,9.786,296.863,0,256,0C187.62,0,123.333,26.628,74.98,74.98C26.627,123.332,0,187.62,0,256
			c0,68.38,26.628,132.667,74.98,181.019c48.352,48.352,112.64,74.98,181.019,74.98s132.667-26.628,181.019-74.98
			c48.352-48.352,74.98-112.64,74.98-181.019C512,187.62,485.372,123.333,437.02,74.98z"/>
	</g>
</g>
<g>
	<g>
		<path fill="#fff" d="M173.887,161.5c-29.865,0-54.163,24.297-54.163,54.163s24.297,54.163,54.163,54.163s54.163-24.297,54.163-54.163
			C228.05,185.798,203.753,161.5,173.887,161.5z M173.887,254.674c-21.51,0-39.012-17.5-39.012-39.012
			c0-21.51,17.5-39.012,39.012-39.012c21.511,0,39.012,17.5,39.012,39.012C212.899,237.174,195.398,254.674,173.887,254.674z"/>
	</g>
</g>
<g>
	<g>
		<path fill="#fff" d="M338.113,242.175c-29.866,0-54.163,24.297-54.163,54.163c0,29.865,24.297,54.163,54.163,54.163
			c29.865,0,54.163-24.297,54.163-54.163S367.979,242.175,338.113,242.175z M338.113,335.349c-21.511,0-39.012-17.5-39.012-39.012
			c0-21.511,17.5-39.012,39.012-39.012c21.51,0,39.012,17.5,39.012,39.012S359.624,335.349,338.113,335.349z"/>
	</g>
</g>
<g>
	<g>
		<path fill="#fff" d="M314.066,145.515c-3.704-1.946-8.285-0.522-10.23,3.182L194.754,356.256c-1.947,3.703-0.523,8.283,3.181,10.23
			c1.124,0.591,2.33,0.871,3.518,0.871c2.724,0,5.357-1.474,6.713-4.052l109.082-207.559
			C319.194,152.041,317.77,147.462,314.066,145.515z"/>
	</g>
</g>
<g>
</g>
<g>
</g>
<g>
</g>
<g>
</g>
<g>
</g>
<g>
</g>
<g>
</g>
<g>
</g>
<g>
</g>
<g>
</g>
<g>
</g>
<g>
</g>
<g>
</g>
<g>
</g>
<g>
</g>
</svg>
